<svg width="36" height="27" viewBox="0 0 36 27" fill="none" xmlns="http://www.w3.org/2000/svg">
<path d="M23.42 15.1177C23.42 16.6908 24.6597 17.9705 26.1834 17.9705C27.7072 17.9705 28.9469 16.6908 28.9469 15.1177C28.9469 13.5447 27.7072 12.2649 26.1834 12.2649C24.6597 12.2649 23.42 13.5447 23.42 15.1177ZM27.5651 15.1177C27.5651 15.9043 26.9453 16.5441 26.1834 16.5441C25.4216 16.5441 24.8017 15.9043 24.8017 15.1177C24.8017 14.3312 25.4216 13.6913 26.1834 13.6913C26.9453 13.6913 27.5651 14.3312 27.5651 15.1177Z" fill="white"/>
<path d="M34.681 14.4045C35.0626 14.4045 35.3719 14.0852 35.3719 13.6913C35.3719 13.2975 35.0626 12.9781 34.681 12.9781C34.2995 12.9781 33.9902 13.2975 33.9902 13.6913C33.9902 14.0852 34.2995 14.4045 34.681 14.4045Z" fill="white"/>
<path d="M17.6859 26.5289C22.5914 26.5289 35.3718 25.2827 35.3718 20.4667V16.9007C35.3718 16.5069 35.0624 16.1875 34.6809 16.1875C34.2994 16.1875 33.9901 16.5069 33.9901 16.9007V20.4667C33.9901 21.6802 31.4535 23.4098 25.8981 24.4089L18.2607 12.5825C18.109 12.3476 17.8376 12.2272 17.568 12.2753C17.2986 12.3235 17.082 12.5312 17.0157 12.8051L15.1808 20.3818L9.77884 16.6639C9.4739 16.454 9.06305 16.5266 8.84294 16.8294L4.36496 22.9932C2.48715 22.2078 1.38171 21.2788 1.38171 20.4667V6.49268C4.91447 8.86971 13.4766 9.4121 17.6859 9.4121C21.9046 9.4121 30.4553 8.87107 33.9901 6.49268V10.4819C33.9901 10.8757 34.2994 11.1951 34.6809 11.1951C35.0624 11.1951 35.3718 10.8757 35.3718 10.4819V4.41969C35.3718 1.76074 29.6768 0.51392 26.2823 0.00733303C26.0836 -0.0220508 25.8827 0.0385716 25.7312 0.17408C25.5796 0.309588 25.4925 0.506289 25.4925 0.713188V7.48903C23.0783 7.81446 20.3936 7.9857 17.6859 7.9857C14.9784 7.9857 12.2935 7.81446 9.87923 7.48903V0.713188C9.87923 0.506289 9.79211 0.309517 9.6406 0.174009C9.4891 0.0385003 9.28785 -0.0221221 9.08951 0.00726175C5.69492 0.51392 0 1.76074 0 4.41969V20.4667C0 25.32 12.9688 26.5289 17.6859 26.5289ZM9.55618 18.225L15.2301 22.1299C15.4171 22.2586 15.6529 22.2855 15.8624 22.2017C16.0719 22.1181 16.2291 21.9345 16.2835 21.7095L17.9774 14.7152L24.3928 24.6492C22.2763 24.9463 19.9806 25.1025 17.6859 25.1025C13.173 25.1025 8.88433 24.5211 5.72795 23.4944L9.55618 18.225ZM26.8743 1.54442C28.237 1.77407 33.9901 2.97867 33.9901 4.41969C33.9901 5.08889 32.0411 6.42029 26.8743 7.28127V1.54442ZM8.49751 1.54442V7.28127C3.33082 6.42029 1.38171 5.08889 1.38171 4.41969C1.38171 2.97867 7.1348 1.77407 8.49751 1.54442Z" fill="white"/>
</svg>
