<svg width="24" height="24" viewBox="0 0 24 24" fill="none" xmlns="http://www.w3.org/2000/svg">
<path fill-rule="evenodd" clip-rule="evenodd" d="M9 9C9 7.34315 10.3431 6 12 6C13.6569 6 15 7.34315 15 9C15 10.6569 13.6569 12 12 12C10.3431 12 9 10.6569 9 9ZM12 7.5C11.1716 7.5 10.5 8.17157 10.5 9C10.5 9.82843 11.1716 10.5 12 10.5C12.8284 10.5 13.5 9.82843 13.5 9C13.5 8.17157 12.8284 7.5 12 7.5Z" fill="#1374CF"/>
<path fill-rule="evenodd" clip-rule="evenodd" d="M5.25 9C5.25 5.27208 8.27208 2.25 12 2.25C15.7279 2.25 18.75 5.27208 18.75 9C18.75 9.74353 18.4 10.72 17.9524 11.674C17.4881 12.6637 16.859 13.7511 16.1865 14.7598C15.5152 15.7667 14.7859 16.7175 14.1148 17.426C13.7805 17.7788 13.444 18.0894 13.1222 18.3175C12.8284 18.5257 12.4316 18.75 12 18.75C11.5684 18.75 11.1716 18.5257 10.8778 18.3175C10.556 18.0894 10.2195 17.7788 9.88522 17.426C9.21408 16.7175 8.48476 15.7667 7.81346 14.7598C7.14099 13.7511 6.51185 12.6637 6.04757 11.674C5.59999 10.72 5.25 9.74353 5.25 9ZM12 3.75C9.1005 3.75 6.75 6.1005 6.75 9C6.75 9.38147 6.96251 10.0925 7.40556 11.0369C7.8319 11.9457 8.42151 12.9677 9.06154 13.9277C9.70274 14.8895 10.3797 15.7668 10.9742 16.3943C11.2727 16.7095 11.5338 16.9438 11.7452 17.0937C11.8835 17.1917 11.966 17.2286 12 17.2424C12.034 17.2286 12.1165 17.1917 12.2548 17.0937C12.4662 16.9438 12.7273 16.7095 13.0258 16.3943C13.6203 15.7668 14.2973 14.8895 14.9385 13.9277C15.5785 12.9677 16.1681 11.9457 16.5944 11.0369C17.0375 10.0925 17.25 9.38147 17.25 9C17.25 6.1005 14.8995 3.75 12 3.75Z" fill="#1374CF"/>
<path d="M6.21442 16.4826C6.61134 16.3642 6.83712 15.9464 6.7187 15.5495C6.60028 15.1526 6.18251 14.9268 5.78558 15.0452C4.82187 15.3327 3.98263 15.7 3.36747 16.1489C2.76738 16.5867 2.25 17.204 2.25 18C2.25 18.7425 2.70213 19.3305 3.24303 19.7568C3.79239 20.1897 4.54085 20.5468 5.39887 20.8328C7.12274 21.4075 9.45654 21.75 12 21.75C14.5435 21.75 16.8773 21.4075 18.6011 20.8328C19.4591 20.5468 20.2076 20.1897 20.757 19.7568C21.2979 19.3305 21.75 18.7425 21.75 18C21.75 17.204 21.2326 16.5867 20.6325 16.1489C20.0174 15.7 19.1781 15.3327 18.2144 15.0452C17.8175 14.9268 17.3997 15.1526 17.2813 15.5495C17.1629 15.9464 17.3887 16.3642 17.7856 16.4826C18.6631 16.7444 19.3239 17.0509 19.7484 17.3606C20.188 17.6814 20.25 17.9075 20.25 18C20.25 18.0859 20.1985 18.2871 19.8285 18.5787C19.467 18.8636 18.8975 19.1529 18.1268 19.4098C16.5933 19.921 14.4271 20.25 12 20.25C9.5729 20.25 7.4067 19.921 5.87321 19.4098C5.10255 19.1529 4.53298 18.8636 4.17149 18.5787C3.80155 18.2871 3.75 18.0859 3.75 18C3.75 17.9075 3.81199 17.6814 4.2516 17.3606C4.67612 17.0509 5.33688 16.7444 6.21442 16.4826Z" fill="#1374CF"/>
</svg>
