<svg width="12" height="12" viewBox="0 0 12 12" fill="none" xmlns="http://www.w3.org/2000/svg">
<path d="M3.54058 5.99986C3.39984 5.87329 3.21644 5.80462 3.02718 5.80761C2.83792 5.81061 2.65679 5.88506 2.52013 6.01603C2.38347 6.147 2.30139 6.32479 2.29034 6.51375C2.2793 6.70272 2.34011 6.88887 2.46058 7.03486L4.12558 8.78236C4.19529 8.85549 4.27905 8.91378 4.37185 8.95373C4.46464 8.99368 4.56455 9.01448 4.66558 9.01486C4.76607 9.01545 4.86566 8.99583 4.95842 8.95718C5.05118 8.91853 5.13523 8.86163 5.20558 8.78986L10.2906 3.53986C10.3595 3.46895 10.4138 3.38515 10.4504 3.29325C10.4869 3.20135 10.505 3.10315 10.5036 3.00426C10.5023 2.90536 10.4814 2.80771 10.4423 2.71688C10.4031 2.62604 10.3465 2.54381 10.2756 2.47486C10.2047 2.40592 10.1209 2.35162 10.029 2.31506C9.93707 2.2785 9.83886 2.2604 9.73997 2.26179C9.64108 2.26319 9.54343 2.28404 9.45259 2.32318C9.36176 2.36231 9.27952 2.41895 9.21058 2.48986L4.67308 7.18486L3.54058 5.99986Z" fill="white"/>
</svg>
