<svg width="60" height="66" viewBox="0 0 60 66"  xmlns="http://www.w3.org/2000/svg">
<path fill-rule="evenodd" clip-rule="evenodd" d="M15 0.5C12.2386 0.5 9.99998 2.73858 9.99998 5.5L5 5.5C2.23857 5.5 0 7.73858 0 10.5V16.75C0 23.533 4.91152 29.1688 11.3722 30.2951C13.9959 36.9897 20.1244 41.9255 27.5 42.8453V60.5H17.5C16.1193 60.5 15 61.6193 15 63C15 64.3807 16.1193 65.5 17.5 65.5H42.5C43.8807 65.5 45 64.3807 45 63C45 61.6193 43.8807 60.5 42.5 60.5H32.5V42.8453C39.8756 41.9255 46.004 36.9897 48.6278 30.2951C55.0884 29.1688 60 23.533 60 16.75V10.5C60 7.73858 57.7614 5.5 55 5.5H50C50 2.73858 47.7614 0.5 45 0.5H15ZM30 38C38.2843 38 45 31.2843 45 23V5.5L15 5.5V23C15 31.2843 21.7157 38 30 38ZM5 10.5H9.99998V23C9.99998 23.5696 10.0238 24.1335 10.0705 24.691C7.07634 23.3014 5 20.2682 5 16.75L5 10.5ZM50 10.5H55L55 16.75C55 20.2682 52.9236 23.3014 49.9295 24.691C49.9762 24.1335 50 23.5696 50 23V10.5Z"/>
</svg>
