<svg width="24" height="24" viewBox="0 0 24 24" fill="none" xmlns="http://www.w3.org/2000/svg">
<g clip-path="url(#clip0)">
<path d="M21.5325 4.71702L17.0325 0.217024C16.891 0.0766331 16.6994 -0.00160131 16.5 -0.000476314H4.5C3.25734 -0.000476314 2.25 1.00687 2.25 2.24952V21.7495C2.25 22.9922 3.25734 23.9995 4.5 23.9995H19.5C20.7427 23.9995 21.75 22.9922 21.75 21.7495V5.24952C21.7512 5.05016 21.6729 4.85859 21.5325 4.71702ZM20.25 21.7495C20.25 22.1638 19.9142 22.4995 19.5 22.4995H4.5C4.08577 22.4995 3.75 22.1638 3.75 21.7495V2.24952C3.75 1.83529 4.08577 1.49952 4.5 1.49952H15.75V4.49952C15.75 5.32795 16.4216 5.99952 17.25 5.99952H20.25V21.7495Z" fill="#757575"/>
</g>
<defs>
<clipPath id="clip0">
<rect width="24" height="24" fill="white"/>
</clipPath>
</defs>
</svg>
