<svg width="40" height="40" viewBox="0 0 40 40" fill="none" xmlns="http://www.w3.org/2000/svg">
<g id="Google">
<g id="Google_2">
<rect id="Rectangle" width="40" height="40" rx="20" fill="#EA4335"/>
<path id="Vector" d="M6.67535 20.0169C6.40886 13.0006 12.5546 6.5166 19.578 6.43248C23.1577 6.12716 26.6403 7.51726 29.3493 9.78448C28.238 11.0063 27.1073 12.2141 25.8996 13.3447C23.5147 11.8958 20.6434 10.7916 17.8561 11.7723C13.3605 13.0523 10.638 18.3604 12.3016 22.7583C13.6794 27.3516 19.2662 29.8723 23.6448 27.9428C25.912 27.131 27.4068 25.0391 28.0627 22.7913C25.4643 22.7395 22.8653 22.7718 20.2669 22.7001C20.2604 21.1541 20.2539 19.614 20.2604 18.068C24.5936 18.0615 28.9334 18.0486 33.2731 18.0874C33.5396 21.8753 32.9807 25.9291 30.5182 28.9693C27.1462 33.309 20.9163 34.5827 15.8483 32.8802C10.4697 31.1136 6.55828 25.695 6.67535 20.0169Z" fill="white"/>
</g>
</g>
</svg>
