<svg width="24" height="24" viewBox="0 0 24 24" fill="none" xmlns="http://www.w3.org/2000/svg">
<path fill-rule="evenodd" clip-rule="evenodd" d="M14.037 4.20121C13.3195 3.787 12.4022 4.03281 11.9879 4.75025L6.45147 14.3397C6.33504 14.5414 6.26716 14.7674 6.2532 14.9998L6.00731 19.0966C5.99859 19.2418 5.99661 19.359 6.00727 19.5266C6.02937 19.8739 5.93776 20.158 6.18051 20.4007L6.49129 20.09C6.18059 20.4008 6.18156 20.4018 6.18156 20.4018L6.18289 20.4031L6.18639 20.4066L6.19673 20.4167C6.2051 20.4248 6.21641 20.4357 6.23056 20.449C6.25885 20.4757 6.29968 20.5185 6.34908 20.557C6.89443 20.9816 8.08582 19.9954 8.08582 19.9954L11.1751 17.8415C11.3694 17.7132 11.5312 17.5414 11.6476 17.3397L17.1841 7.75025C17.5983 7.03281 17.3525 6.11543 16.6351 5.70121L14.037 4.20121ZM13.287 5.50025L15.8851 7.00025L15.1351 8.29929L12.537 6.79929L13.287 5.50025ZM11.787 8.09832L14.3851 9.59832L10.3486 16.5897L7.54955 18.4378L7.75051 15.0897L11.787 8.09832Z" fill="#757575"/>
</svg>
