<svg width="39" height="39" viewBox="0 0 39 39" fill="none" xmlns="http://www.w3.org/2000/svg">
<path d="M28.1671 27.383L28.1671 11.616C28.1672 11.1835 27.8165 10.8329 27.384 10.8329L11.617 10.8329C11.1845 10.8329 10.8339 11.1835 10.8339 11.616L10.8339 27.383C10.8338 27.8155 11.1844 28.1662 11.617 28.1661L27.384 28.1661C27.8165 28.1662 28.1671 27.8155 28.1671 27.383ZM26.6008 12.3992L26.6008 22.039L23.6064 22.039L23.6063 12.3992L26.6008 12.3992ZM22.04 22.039L16.9609 22.039L16.9609 16.9599H22.04L22.04 22.039ZM12.4002 12.3993L22.04 12.3992L22.04 15.3936L12.4001 15.3937L12.4002 12.3993ZM12.4002 26.5998L12.4002 16.96L15.3946 16.96L15.3947 26.5998L12.4002 26.5998ZM16.9609 26.5998V23.6054H26.6007L26.6008 26.5998L16.9609 26.5998Z" fill="#1374CF"/>
</svg>
