<svg width="64" height="64" viewBox="0 0 64 64" fill="none" xmlns="http://www.w3.org/2000/svg">
<path d="M43.5165 34.5021C45.0928 34.9559 46.6691 35.1862 48.2024 35.1862C50.5702 35.1862 52.5459 34.6451 54.0779 33.9824C52.601 39.3894 49.053 48.719 41.9852 49.7696C41.3307 49.867 40.7943 50.3403 40.6157 50.9774L39.071 56.5025C38.9407 56.9697 39.0179 57.4699 39.2845 57.8754C39.551 58.2809 39.9793 58.5514 40.4593 58.6172C40.9809 58.6884 41.5126 58.7246 42.0396 58.7246C50.5232 58.7246 58.9249 49.8697 62.4702 37.1908C64.5514 29.7523 65.1616 18.5692 60.0353 11.5302C57.1667 7.59148 52.9816 5.48817 47.5962 5.27805C47.5741 5.27737 47.5526 5.27671 47.5304 5.27671C40.8856 5.27671 34.9933 9.75184 33.2009 16.1584C32.1301 19.9884 32.6141 24.005 34.565 27.4711C36.4951 30.8983 39.6738 33.3964 43.5165 34.5021Z" fill="#E4E4E4"/>
<path d="M1.92157 27.4705C3.85165 30.8983 7.0304 33.3964 10.8731 34.5021C12.4494 34.9559 14.0257 35.1862 15.5583 35.1862C17.9261 35.1862 19.9025 34.6451 21.4345 33.9824C19.9576 39.3894 16.4096 48.719 9.34113 49.7696C8.68658 49.867 8.15085 50.3403 7.97161 50.9774L6.42688 56.5025C6.29664 56.9697 6.37384 57.4699 6.64036 57.8754C6.90621 58.2809 7.33451 58.5514 7.81519 58.6172C8.33614 58.6884 8.86784 58.7246 9.3955 58.7246C17.8791 58.7246 26.2808 49.8697 29.8268 37.1908C31.9072 29.7523 32.5175 18.5692 27.3905 11.5289C24.5226 7.59081 20.3369 5.48684 14.9521 5.27737C14.93 5.27671 14.9085 5.27604 14.8856 5.27604C8.24148 5.27604 2.34854 9.75117 0.556089 16.1578C-0.51334 19.9877 -0.0286427 24.005 1.92157 27.4705Z" fill="#E4E4E4"/>
</svg>
