<svg width="24" height="24" viewBox="0 0 24 24" fill="none" xmlns="http://www.w3.org/2000/svg">
<path d="M19.9554 4.04501C17.9052 1.99476 14.581 1.99476 12.5308 4.04501L9.87913 6.69666C9.58624 6.98956 9.58624 7.46443 9.87913 7.75732C10.172 8.05022 10.6469 8.05022 10.9398 7.75732L13.5914 5.10567C15.0559 3.64121 17.4303 3.64121 18.8947 5.10567C20.3592 6.57014 20.3592 8.94451 18.8947 10.409L16.2431 13.0606C15.9502 13.3535 15.9502 13.8284 16.2431 14.1213C16.536 14.4142 17.0109 14.4142 17.3038 14.1213L19.9554 11.4696C22.0057 9.41938 22.0057 6.09527 19.9554 4.04501Z" fill="white"/>
<path d="M7.75781 10.9393C8.05071 10.6464 8.05071 10.1715 7.75781 9.87864C7.46492 9.58575 6.99005 9.58575 6.69715 9.87864L4.0455 12.5303C1.99525 14.5805 1.99525 17.9047 4.0455 19.9549C6.09576 22.0052 9.41987 22.0052 11.4701 19.9549L14.1218 17.3033C14.4147 17.0104 14.4147 16.5355 14.1218 16.2426C13.8289 15.9497 13.354 15.9497 13.0611 16.2426L10.4095 18.8943C8.945 20.3587 6.57063 20.3587 5.10616 18.8943C3.6417 17.4298 3.6417 15.0554 5.10616 13.591L7.75781 10.9393Z" fill="white"/>
<path d="M15.1824 9.87864C15.4753 9.58575 15.4753 9.11088 15.1824 8.81798C14.8895 8.52509 14.4147 8.52509 14.1218 8.81798L8.81846 14.1213C8.52557 14.4142 8.52557 14.889 8.81846 15.1819C9.11135 15.4748 9.58623 15.4748 9.87912 15.1819L15.1824 9.87864Z" fill="white"/>
</svg>
