<svg width="127" height="43" viewBox="0 0 127 43"  xmlns="http://www.w3.org/2000/svg">
<path fill-rule="evenodd" clip-rule="evenodd" d="M39.6016 14.1733L37.2928 11.8679C36.5946 11.0759 35.574 10.5766 34.437 10.5766C32.3316 10.5766 30.6251 12.2884 30.6251 14.4001C30.6251 15.8656 31.4471 17.1385 32.654 17.7803L42.904 23.9876C42.6736 25.9582 42.1694 27.8916 41.4034 29.7316C40.317 32.3413 38.7248 34.712 36.7175 36.709C34.7103 38.7056 32.3271 40.2887 29.705 41.3681C27.0828 42.4476 24.2726 43.002 21.435 43C17.2787 43 13.2106 41.8066 9.71853 39.5629C6.22646 37.3192 3.45857 34.1203 1.74677 30.35L3.28775 28.8157L5.60716 31.1319C6.30556 31.9241 7.32639 32.4232 8.46355 32.4232C10.5687 32.4232 12.2754 30.7115 12.2754 28.6001C12.2754 27.1347 11.4536 25.862 10.2472 25.2201L0 19.0146C0.559527 14.2275 2.7236 9.73899 6.1809 6.29721C10.2311 2.26518 15.7243 6.42234e-06 21.4522 6.42234e-06C25.608 -0.00319008 29.6768 1.18689 33.17 3.42756C36.6636 5.66823 39.4341 8.86445 41.1488 12.633L39.6016 14.1733Z" fill="#E42734"/>
<path d="M62.8667 37.4125L60.5097 34.0303H57.9096V37.4125H55.084V25.2559H60.3708C63.6295 25.2559 65.6748 26.9814 65.6748 29.6646C65.7087 30.4855 65.4848 31.2961 65.0345 31.9841C64.5839 32.6722 63.9294 33.2037 63.1617 33.5041L65.9003 37.4125H62.8667ZM60.2147 27.5509H57.9096V31.787H60.2147C61.9482 31.787 62.8148 30.9846 62.8148 29.6646C62.8148 28.3446 61.9397 27.5509 60.2147 27.5509Z" fill="#FFFFFF"/>
<path d="M76.8549 33.5035H69.7565C69.9036 34.085 70.2562 34.5944 70.7493 34.9382C71.2429 35.282 71.8443 35.4373 72.4432 35.3755C72.8747 35.3984 73.3061 35.3341 73.7114 35.1857C74.1167 35.0374 74.4873 34.8083 74.8006 34.5128L76.2482 36.0746C75.7526 36.593 75.1487 36.9967 74.4795 37.2577C73.8103 37.5188 73.0916 37.6302 72.3742 37.5843C69.1326 37.5843 67.0179 35.5566 67.0179 32.7699C67.0102 32.1212 67.1356 31.4778 67.3868 30.879C67.6385 30.2807 68.0099 29.7394 68.4793 29.2894C68.9488 28.839 69.5057 28.4894 70.1156 28.2612C70.726 28.0333 71.3765 27.9325 72.0273 27.9641C72.6753 27.9284 73.3237 28.0284 73.9304 28.2575C74.5371 28.4866 75.0891 28.8398 75.5503 29.2943C76.012 29.7488 76.3724 30.2942 76.6089 30.8958C76.8455 31.4974 76.9529 32.1417 76.9239 32.7871C76.9239 32.9855 76.872 33.2789 76.8549 33.5035ZM69.7222 31.9245H74.3242C74.2348 31.3786 73.9537 30.8819 73.5304 30.5237C73.1071 30.1656 72.5699 29.9689 72.0142 29.9689C71.459 29.9689 70.9213 30.1656 70.4985 30.5237C70.0752 30.8819 69.7937 31.3786 69.7046 31.9245H69.7222Z" fill="#FFFFFF"/>
<path d="M94.5784 32.0625V37.4122H91.857V32.4854C91.857 30.9757 91.1722 30.2766 90.0801 30.2766C88.9884 30.2766 88.0001 31.0618 88.0001 32.7268V37.4122H85.2787V32.4854C85.2787 30.9757 84.6287 30.2766 83.5023 30.2766C82.3754 30.2766 81.448 31.0618 81.448 32.7268V37.4122H78.7266V28.0681H81.3267V29.1463C81.6997 28.7431 82.1569 28.4251 82.6655 28.2152C83.1746 28.005 83.7233 27.9075 84.2736 27.93C84.8714 27.9005 85.4662 28.0259 86.001 28.2935C86.5354 28.5611 86.9914 28.9619 87.3244 29.457C87.7333 28.9627 88.2506 28.5685 88.8365 28.3038C89.4223 28.039 90.0613 27.9112 90.7044 27.93C92.9752 27.93 94.5784 29.2156 94.5784 32.0625Z" fill="#FFFFFF"/>
<path d="M96.4258 32.7453C96.4258 29.9328 98.6095 27.9395 101.626 27.9395C104.642 27.9395 106.774 29.9328 106.774 32.7453C106.774 35.5582 104.607 37.5597 101.626 37.5597C98.6443 37.5597 96.4258 35.5582 96.4258 32.7453ZM103.974 32.7453C103.937 32.2801 103.765 31.8355 103.478 31.4667C103.191 31.0978 102.802 30.82 102.359 30.668C101.915 30.5155 101.437 30.4954 100.983 30.6098C100.528 30.7241 100.117 30.9675 99.7997 31.3114C99.4822 31.6548 99.2722 32.083 99.1958 32.5432C99.119 33.0039 99.1791 33.4764 99.3682 33.9034C99.5574 34.3304 99.8679 34.6931 100.261 34.9472C100.654 35.2013 101.114 35.3357 101.582 35.3336C101.917 35.3402 102.249 35.2763 102.556 35.1455C102.864 35.0152 103.14 34.8214 103.367 34.5767C103.594 34.3321 103.766 34.0423 103.872 33.7268C103.978 33.4112 104.016 33.0764 103.983 32.7453H103.974Z" fill="#FFFFFF"/>
<path d="M118.143 32.0637V37.4129H115.421V32.4862C115.421 30.9765 114.728 30.2778 113.523 30.2778C112.319 30.2778 111.27 31.0802 111.27 32.7969V37.4129H108.549V28.0689H111.149V29.1647C111.55 28.7541 112.034 28.432 112.568 28.2193C113.103 28.007 113.676 27.9087 114.252 27.9308C116.47 27.9308 118.143 29.2164 118.143 32.0637Z" fill="#FFFFFF"/>
<path d="M126.654 36.9635C125.991 37.3766 125.218 37.5811 124.436 37.55C122.217 37.55 120.969 36.4197 120.969 34.2022V30.3631H119.521V28.2752H120.969V26.0059H123.69V28.2838H126.03V30.3718H123.69V34.1678C123.672 34.3239 123.689 34.4825 123.739 34.6317C123.789 34.7809 123.87 34.9178 123.978 35.0325C124.086 35.1473 124.218 35.2374 124.364 35.2968C124.51 35.3563 124.668 35.3829 124.825 35.3759C125.22 35.3812 125.606 35.2604 125.926 35.0309L126.654 36.9635Z" fill="#FFFFFF"/>
<path d="M54.8242 16.6357L55.786 14.5132C56.9712 15.3292 58.3754 15.7712 59.816 15.7816C61.4887 15.7816 62.1734 15.2294 62.1734 14.4787C62.1734 12.201 55.0755 13.7626 55.0755 9.25024C55.0755 7.17951 56.7481 5.46258 60.2234 5.46258C61.7081 5.43291 63.1732 5.80571 64.4614 6.54103L63.5948 8.68077C62.5604 8.09011 61.3902 7.77509 60.1976 7.76624C58.5246 7.76624 57.8746 8.38742 57.8746 9.15532C57.8746 11.3986 64.9729 9.85417 64.9729 14.3321C64.9729 16.3596 63.2394 18.1025 59.7727 18.1025C58.0118 18.1255 56.2856 17.6138 54.8242 16.6357Z" fill="#FFFFFF"/>
<path d="M82.5741 12.4864V17.8357H79.8526V12.9437C79.8526 11.4338 79.1679 10.7349 78.0758 10.7349C76.9841 10.7349 75.9958 11.5201 75.9958 13.1852V17.8702H73.2834V12.9437C73.2834 11.4338 72.6333 10.7349 71.5065 10.7349C70.3797 10.7349 69.4527 11.5201 69.4527 13.1852V17.8702H66.7227V8.49166H69.3223V9.57015C69.6958 9.16666 70.1525 8.84885 70.6612 8.63878C71.1703 8.42871 71.719 8.33138 72.2693 8.3536C72.8727 8.31831 73.475 8.44068 74.0159 8.70857C74.5573 8.97642 75.0185 9.38053 75.3548 9.88075C75.7637 9.3866 76.281 8.99212 76.8669 8.72742C77.4527 8.46277 78.0917 8.33491 78.7348 8.3536C80.9709 8.3536 82.5741 9.63916 82.5741 12.4864Z" fill="#FFFFFF"/>
<path d="M93.3225 12.5045V17.8366H90.7918V16.6718C90.4768 17.125 90.045 17.4852 89.5416 17.7145C89.0383 17.9438 88.4822 18.0337 87.9319 17.9746C85.7302 17.9746 84.4648 16.7581 84.4648 15.1447C84.4648 13.5312 85.635 12.3492 88.4949 12.3492H90.6619C90.6619 11.1844 89.9686 10.5115 88.4949 10.5115C87.5242 10.5021 86.5759 10.8047 85.791 11.3743L84.7251 9.49336C85.9316 8.72481 87.3403 8.33135 88.7723 8.36311C91.6584 8.3545 93.3225 9.67458 93.3225 12.5045ZM90.6011 14.8858V13.9281H88.7376C87.4637 13.9281 87.0649 14.3941 87.0649 15.0239C87.0649 15.6537 87.6369 16.1541 88.5991 16.1541C89.0248 16.1829 89.4489 16.0753 89.8093 15.8471C90.1692 15.6189 90.447 15.2821 90.6011 14.8858Z" fill="#FFFFFF"/>
<path d="M101.608 8.35306V10.7861C99.3802 10.7861 98.5046 11.6489 98.5046 13.4263V17.8352H95.7832V8.49112H98.3833V9.72489C98.7698 9.25451 99.265 8.88409 99.8263 8.64521C100.388 8.40633 100.999 8.30613 101.608 8.35306Z" fill="#FFFFFF"/>
<path d="M109.615 17.3871C108.952 17.8004 108.179 18.0049 107.397 17.9739C105.178 17.9739 103.93 16.8436 103.93 14.6262V10.7868H102.482V8.6988H103.93V6.42969H106.651V8.70745H108.991V10.7868H106.651V14.5917C106.629 14.753 106.642 14.9174 106.692 15.0726C106.742 15.2277 106.826 15.3698 106.939 15.4882C107.051 15.6067 107.189 15.6985 107.341 15.7569C107.494 15.8152 107.658 15.8387 107.821 15.8255C108.216 15.8311 108.602 15.7101 108.922 15.4804L109.615 17.3871Z" fill="#FFFFFF"/>
</svg>
