<svg width="18" height="18" viewBox="0 0 18 18" fill="none" xmlns="http://www.w3.org/2000/svg">
<path fill-rule="evenodd" clip-rule="evenodd" d="M7.5 0C3.35786 0 0 3.35786 0 7.5C0 11.6421 3.35786 15 7.5 15C9.30095 15 10.9536 14.3652 12.2465 13.3072L16.7197 17.7803C17.0126 18.0732 17.4874 18.0732 17.7803 17.7803C18.0732 17.4874 18.0732 17.0126 17.7803 16.7197L13.3072 12.2465C14.3652 10.9536 15 9.30095 15 7.5C15 3.35786 11.6421 0 7.5 0ZM1.5 7.5C1.5 4.18629 4.18629 1.5 7.5 1.5C10.8137 1.5 13.5 4.18629 13.5 7.5C13.5 10.8137 10.8137 13.5 7.5 13.5C4.18629 13.5 1.5 10.8137 1.5 7.5Z" fill="#757575"/>
</svg>
