<svg width="40" height="40" viewBox="0 0 40 40" fill="none" xmlns="http://www.w3.org/2000/svg">
<g id="Mail.ru">
<g id="Mail.ru_2">
<rect id="Rectangle" width="40" height="40" rx="20" fill="#005FF9"/>
<path id="Vector" d="M24.0108 19.9993C24.0108 22.2108 22.2118 24.0098 20.0003 24.0098C17.7889 24.0098 15.9898 22.2108 15.9898 19.9993C15.9898 17.7879 17.7889 15.9889 20.0003 15.9889C22.2118 15.9889 24.0108 17.7879 24.0108 19.9993ZM20.0003 6.66602C12.6479 6.66602 6.66699 12.647 6.66699 19.9993C6.66699 27.3517 12.6479 33.3327 20.0003 33.3327C22.6937 33.3327 25.2908 32.5308 27.5108 31.0136L27.5489 30.987L25.7527 28.8993L25.7222 28.9184C24.0137 30.0184 22.0346 30.5993 20.0003 30.5993C14.1556 30.5993 9.40033 25.8441 9.40033 19.9993C9.40033 14.1546 14.1556 9.39935 20.0003 9.39935C25.8451 9.39935 30.6003 14.1546 30.6003 19.9993C30.6003 20.7565 30.5156 21.5232 30.3508 22.2774C30.0156 23.6536 29.0518 24.0746 28.3289 24.0193C27.6013 23.9603 26.7499 23.4422 26.7441 22.1736V21.207V19.9993C26.7441 16.2803 23.7194 13.2555 20.0003 13.2555C16.2813 13.2555 13.2565 16.2803 13.2565 19.9993C13.2565 23.7184 16.2813 26.7432 20.0003 26.7432C21.807 26.7432 23.5013 26.0374 24.7784 24.7527C25.5213 25.9089 26.7318 26.6336 28.1098 26.7441C28.2279 26.7536 28.3489 26.7584 28.4679 26.7584C29.4384 26.7584 30.3994 26.4336 31.1746 25.846C31.9737 25.2384 32.5708 24.3613 32.9003 23.307C32.9527 23.1365 33.0499 22.747 33.0499 22.7441L33.0527 22.7298C33.247 21.8841 33.3337 21.0413 33.3337 19.9993C33.3337 12.647 27.3527 6.66602 20.0003 6.66602Z" fill="white"/>
</g>
</g>
</svg>
