<svg width="24" height="24" viewBox="0 0 24 24" fill="none" xmlns="http://www.w3.org/2000/svg">
<path fill-rule="evenodd" clip-rule="evenodd" d="M15 5.25C15 6.64788 14.0439 7.82245 12.75 8.15549V14.25C12.75 14.6642 12.4142 15 12 15C11.5858 15 11.25 14.6642 11.25 14.25V8.15549C9.95608 7.82245 9 6.64788 9 5.25C9 3.59315 10.3431 2.25 12 2.25C13.6569 2.25 15 3.59315 15 5.25ZM12 3.75C11.1716 3.75 10.5 4.42157 10.5 5.25C10.5 6.07843 11.1716 6.75 12 6.75C12.8284 6.75 13.5 6.07843 13.5 5.25C13.5 4.42157 12.8284 3.75 12 3.75Z" fill="#1374CF"/>
<path fill-rule="evenodd" clip-rule="evenodd" d="M9.75 18.2303V10.7815C10.0536 10.7814 10.3394 10.5956 10.4522 10.2946C10.5977 9.90676 10.4012 9.47445 10.0133 9.32901L9.26701 9.04913C9.24502 9.04075 9.22269 9.03343 9.2001 9.02718C9.07024 8.99125 8.93189 8.99063 8.7999 9.02718C8.77731 9.03343 8.75498 9.04075 8.73299 9.04913L2.73666 11.2978C2.44393 11.4075 2.25 11.6874 2.25 12V21C2.25 21.246 2.37062 21.4763 2.5728 21.6164C2.77498 21.7566 3.03302 21.7886 3.26334 21.7022L9 19.551L14.7328 21.7008L14.7497 21.707C14.8919 21.7573 15.0471 21.764 15.1946 21.7243C15.2192 21.7177 15.2434 21.7099 15.2672 21.7008L21.2633 19.4522C21.5561 19.3425 21.75 19.0626 21.75 18.75V9.75C21.75 9.50402 21.6294 9.27367 21.4272 9.13356C21.225 8.99345 20.967 8.96139 20.7367 9.04776L15 11.199L14.5133 11.0165C14.1255 10.8711 13.6932 11.0676 13.5478 11.4554C13.4023 11.8433 13.5988 12.2756 13.9867 12.421L14.25 12.5198V19.9178L9.75 18.2303ZM8.25 10.8323V18.2303L3.75 19.9178V12.5198L8.25 10.8323ZM20.25 18.2303L15.75 19.9178V12.5198L20.25 10.8323V18.2303Z" fill="#1374CF"/>
</svg>
