<svg width="24" height="24" viewBox="0 0 24 24" fill="none" xmlns="http://www.w3.org/2000/svg">
<path fill-rule="evenodd" clip-rule="evenodd" d="M2.25 5.25C2.25 3.59315 3.59315 2.25 5.25 2.25L17.25 2.25C19.7353 2.25 21.75 4.26472 21.75 6.75V19.3299C21.75 20.6241 20.2208 21.3109 19.2535 20.451L18.1233 19.4464C17.8391 19.1938 17.4109 19.1938 17.1267 19.4464L15.7448 20.6748C14.8923 21.4325 13.6077 21.4325 12.7552 20.6748L11.3733 19.4464C11.0891 19.1938 10.6609 19.1938 10.3767 19.4464L9.24655 20.451C8.27919 21.3109 6.75 20.6241 6.75 19.3299L6.75 10.5H4.5C3.25736 10.5 2.25 9.49265 2.25 8.25001V5.25ZM7.84865 3.75L17.25 3.75C18.9069 3.75 20.25 5.09315 20.25 6.75V19.3299L19.1198 18.3253C18.2673 17.5675 16.9827 17.5675 16.1302 18.3253L14.7483 19.5536C14.4641 19.8062 14.0359 19.8062 13.7517 19.5536L12.3698 18.3253C11.5173 17.5675 10.2327 17.5675 9.38018 18.3253L8.25 19.3299V5.25C8.25 4.70357 8.10391 4.19126 7.84865 3.75ZM5.25 3.75C4.42157 3.75 3.75 4.42157 3.75 5.25V8.25001C3.75 8.66422 4.08579 9.00001 4.5 9.00001H6.75V5.25C6.75 4.42157 6.07843 3.75 5.25 3.75Z" fill="#1374CF"/>
</svg>
