<svg width="64" height="54" viewBox="0 0 64 54" fill="none" xmlns="http://www.w3.org/2000/svg">
<path d="M43.5164 29.5021C45.0926 29.9559 46.6689 30.1862 48.2022 30.1862C50.57 30.1862 52.5458 29.6451 54.0777 28.9824C52.6008 34.3894 49.0528 43.719 41.9851 44.7696C41.3305 44.867 40.7941 45.3403 40.6155 45.9774L39.0708 51.5025C38.9406 51.9697 39.0178 52.4699 39.2843 52.8754C39.5508 53.2809 39.9791 53.5514 40.4591 53.6172C40.9807 53.6884 41.5124 53.7246 42.0394 53.7246C50.523 53.7246 58.9247 44.8697 62.47 32.1908C64.5512 24.7523 65.1614 13.5692 60.0351 6.53022C57.1665 2.59148 52.9815 0.488174 47.596 0.278046C47.5739 0.277374 47.5524 0.276707 47.5302 0.276707C40.8854 0.276707 34.9931 4.75184 33.2007 11.1584C32.1299 14.9884 32.6139 19.005 34.5648 22.4711C36.4949 25.8983 39.6737 28.3964 43.5164 29.5021Z" fill="#E4E4E4"/>
<path d="M1.92139 22.4705C3.85147 25.8983 7.03022 28.3964 10.8729 29.5021C12.4492 29.9559 14.0255 30.1862 15.5581 30.1862C17.9259 30.1862 19.9023 29.6451 21.4343 28.9824C19.9574 34.3894 16.4094 43.719 9.34094 44.7696C8.68639 44.867 8.15067 45.3403 7.97143 45.9774L6.42669 51.5025C6.29645 51.9697 6.37366 52.4699 6.64018 52.8754C6.90602 53.2809 7.33433 53.5514 7.815 53.6172C8.33596 53.6884 8.86765 53.7246 9.39532 53.7246C17.8789 53.7246 26.2806 44.8697 29.8266 32.1908C31.9071 24.7523 32.5173 13.5692 27.3903 6.52888C24.5224 2.59081 20.3367 0.486835 14.9519 0.277374C14.9298 0.276707 14.9083 0.276035 14.8855 0.276035C8.2413 0.276035 2.34836 4.75117 0.555906 11.1578C-0.513523 14.9877 -0.0288258 19.005 1.92139 22.4705Z" fill="#E4E4E4"/>
</svg>
