<svg width="24" height="25" viewBox="0 0 24 25" fill="none" xmlns="http://www.w3.org/2000/svg">
<path d="M17.4994 22.5001C16.4173 22.5126 15.3917 22.0182 14.7276 21.1638C14.0635 20.3095 13.8373 19.1936 14.1164 18.1481L7.85636 14.5701C6.77464 15.5611 5.18904 15.7709 3.88685 15.0952C2.58465 14.4195 1.84323 13.0023 2.03073 11.5473C2.21822 10.0923 3.29469 8.90932 4.72564 8.58583C6.15658 8.26234 7.63722 8.8672 8.43236 10.1001L14.1154 6.85108C14.0418 6.57327 14.0029 6.28744 13.9994 6.00008C13.985 4.3268 15.1472 2.87322 16.7826 2.5189C18.418 2.16458 20.0775 3.00683 20.757 4.536C21.4365 6.06517 20.9494 7.86131 19.5903 8.83759C18.2313 9.81387 16.3736 9.70217 15.1414 8.57008L8.99036 12.0851C8.98427 12.3444 8.94802 12.6021 8.88236 12.8531L15.1414 16.4301C16.2936 15.3726 18.0081 15.2094 19.3392 16.0304C20.6704 16.8514 21.294 18.4568 20.8662 19.9611C20.4384 21.4654 19.0633 22.5024 17.4994 22.5001ZM17.4994 17.5001C16.6709 17.5001 15.9994 18.1717 15.9994 19.0001C15.9994 19.8285 16.6709 20.5001 17.4994 20.5001C18.3278 20.5001 18.9994 19.8285 18.9994 19.0001C18.9994 18.1717 18.3278 17.5001 17.4994 17.5001ZM5.49936 10.5001C4.67093 10.5001 3.99936 11.1717 3.99936 12.0001C3.99936 12.8285 4.67093 13.5001 5.49936 13.5001C6.32779 13.5001 6.99936 12.8285 6.99936 12.0001C6.99936 11.1717 6.32779 10.5001 5.49936 10.5001ZM17.4994 4.50008C16.6709 4.50008 15.9994 5.17165 15.9994 6.00008C15.9994 6.82851 16.6709 7.50008 17.4994 7.50008C18.3278 7.50008 18.9994 6.82851 18.9994 6.00008C18.9994 5.17165 18.3278 4.50008 17.4994 4.50008Z" fill="#757575"/>
</svg>
