<svg width="180" height="17" viewBox="0 0 180 17" fill="none" xmlns="http://www.w3.org/2000/svg">
<path d="M11.1406 15.9766H9.875V13H1.9375V15.9766H0.671875V11.7969H1.55469C2.35677 10.4479 3.04167 8.80729 3.60938 6.875C4.18229 4.94271 4.5 3.17708 4.5625 1.57812H9.69531V11.7969H11.1406V15.9766ZM8.36719 11.7969V2.77344H5.76562C5.67188 4.03385 5.35677 5.54948 4.82031 7.32031C4.28385 9.08594 3.65885 10.5781 2.94531 11.7969H8.36719ZM20.2656 8.71094C20.2656 10.1068 19.9141 11.1979 19.2109 11.9844C18.5078 12.7656 17.5365 13.1562 16.2969 13.1562C15.5312 13.1562 14.8516 12.9766 14.2578 12.6172C13.6641 12.2578 13.2057 11.7422 12.8828 11.0703C12.5599 10.3984 12.3984 9.61198 12.3984 8.71094C12.3984 7.3151 12.7474 6.22917 13.4453 5.45312C14.1432 4.67188 15.112 4.28125 16.3516 4.28125C17.5495 4.28125 18.5 4.67969 19.2031 5.47656C19.9115 6.27344 20.2656 7.35156 20.2656 8.71094ZM13.7422 8.71094C13.7422 9.80469 13.9609 10.638 14.3984 11.2109C14.8359 11.7839 15.4792 12.0703 16.3281 12.0703C17.1771 12.0703 17.8203 11.7865 18.2578 11.2188C18.7005 10.6458 18.9219 9.8099 18.9219 8.71094C18.9219 7.6224 18.7005 6.79688 18.2578 6.23438C17.8203 5.66667 17.1719 5.38281 16.3125 5.38281C15.4635 5.38281 14.8229 5.66146 14.3906 6.21875C13.9583 6.77604 13.7422 7.60677 13.7422 8.71094ZM22.1016 7.86719C22.1016 5.99219 22.3776 4.53125 22.9297 3.48438C23.4818 2.43229 24.3568 1.77604 25.5547 1.51562C27.0443 1.19792 28.3568 0.940104 29.4922 0.742188L29.7344 1.88281C27.9271 2.1849 26.6354 2.42448 25.8594 2.60156C25.1042 2.77344 24.5365 3.17969 24.1562 3.82031C23.7812 4.46094 23.5755 5.33333 23.5391 6.4375H23.6328C23.9557 6 24.3724 5.65625 24.8828 5.40625C25.3932 5.15625 25.9271 5.03125 26.4844 5.03125C27.5365 5.03125 28.3568 5.3724 28.9453 6.05469C29.5339 6.73698 29.8281 7.68229 29.8281 8.89062C29.8281 10.2292 29.487 11.276 28.8047 12.0312C28.1224 12.7812 27.1719 13.1562 25.9531 13.1562C24.75 13.1562 23.8073 12.6953 23.125 11.7734C22.4427 10.8516 22.1016 9.54948 22.1016 7.86719ZM26.0703 12.0703C27.6589 12.0703 28.4531 11.0573 28.4531 9.03125C28.4531 7.09896 27.7318 6.13281 26.2891 6.13281C25.8932 6.13281 25.5104 6.21615 25.1406 6.38281C24.776 6.54427 24.4401 6.76042 24.1328 7.03125C23.8307 7.30208 23.5964 7.58073 23.4297 7.86719C23.4297 9.23698 23.6458 10.2812 24.0781 11C24.5104 11.7135 25.1745 12.0703 26.0703 12.0703ZM37.3594 13L37.1016 11.7812H37.0391C36.612 12.3177 36.1849 12.6823 35.7578 12.875C35.3359 13.0625 34.8073 13.1562 34.1719 13.1562C33.3229 13.1562 32.6562 12.9375 32.1719 12.5C31.6927 12.0625 31.4531 11.4401 31.4531 10.6328C31.4531 8.90365 32.8359 7.9974 35.6016 7.91406L37.0547 7.86719V7.33594C37.0547 6.66406 36.9089 6.16927 36.6172 5.85156C36.3307 5.52865 35.8698 5.36719 35.2344 5.36719C34.5208 5.36719 33.7135 5.58594 32.8125 6.02344L32.4141 5.03125C32.8359 4.80208 33.2969 4.6224 33.7969 4.49219C34.3021 4.36198 34.8073 4.29688 35.3125 4.29688C36.3333 4.29688 37.0885 4.52344 37.5781 4.97656C38.0729 5.42969 38.3203 6.15625 38.3203 7.15625V13H37.3594ZM34.4297 12.0859C35.237 12.0859 35.8698 11.8646 36.3281 11.4219C36.7917 10.9792 37.0234 10.3594 37.0234 9.5625V8.78906L35.7266 8.84375C34.6953 8.88021 33.9505 9.04167 33.4922 9.32812C33.0391 9.60938 32.8125 10.0495 32.8125 10.6484C32.8125 11.1172 32.9531 11.474 33.2344 11.7188C33.5208 11.9635 33.9193 12.0859 34.4297 12.0859ZM47.9453 6.58594C47.9453 7.14323 47.7839 7.56771 47.4609 7.85938C47.1432 8.14583 46.6953 8.33854 46.1172 8.4375V8.50781C46.8464 8.60677 47.3776 8.82031 47.7109 9.14844C48.0495 9.47656 48.2188 9.92969 48.2188 10.5078C48.2188 11.3047 47.9245 11.9193 47.3359 12.3516C46.7526 12.7839 45.8984 13 44.7734 13H41V4.4375H44.7578C46.8828 4.4375 47.9453 5.15365 47.9453 6.58594ZM46.9219 10.4219C46.9219 9.95833 46.7448 9.6224 46.3906 9.41406C46.0417 9.20052 45.4609 9.09375 44.6484 9.09375H42.2969V11.9141H44.6797C46.1745 11.9141 46.9219 11.4167 46.9219 10.4219ZM46.6797 6.71094C46.6797 6.29427 46.5182 6 46.1953 5.82812C45.8776 5.65104 45.3932 5.5625 44.7422 5.5625H42.2969V7.97656H44.4922C45.2943 7.97656 45.8594 7.8776 46.1875 7.67969C46.5156 7.48177 46.6797 7.15885 46.6797 6.71094ZM51.3281 4.4375V9.86719L51.2734 11.2891L51.25 11.7344L55.8828 4.4375H57.5V13H56.2891V7.76562L56.3125 6.73438L56.3516 5.71875L51.7266 13H50.1094V4.4375H51.3281ZM66.0234 5.54688H63.2422V13H61.9453V5.54688H59.1953V4.4375H66.0234V5.54688ZM69.0156 7.97656H71.6562C73.8438 7.97656 74.9375 8.78125 74.9375 10.3906C74.9375 11.2344 74.651 11.8802 74.0781 12.3281C73.5104 12.776 72.6771 13 71.5781 13H67.7188V4.4375H69.0156V7.97656ZM69.0156 9.09375V11.9141H71.5156C72.2031 11.9141 72.7292 11.7943 73.0938 11.5547C73.4583 11.3151 73.6406 10.9531 73.6406 10.4688C73.6406 9.99479 73.4714 9.64844 73.1328 9.42969C72.7995 9.20573 72.2474 9.09375 71.4766 9.09375H69.0156ZM82.6406 4.4375V8.02344H87.4375V4.4375H88.7344V13H87.4375V9.14062H82.6406V13H81.3438V4.4375H82.6406ZM98.875 8.71094C98.875 10.1068 98.5234 11.1979 97.8203 11.9844C97.1172 12.7656 96.1458 13.1562 94.9062 13.1562C94.1406 13.1562 93.4609 12.9766 92.8672 12.6172C92.2734 12.2578 91.8151 11.7422 91.4922 11.0703C91.1693 10.3984 91.0078 9.61198 91.0078 8.71094C91.0078 7.3151 91.3568 6.22917 92.0547 5.45312C92.7526 4.67188 93.7214 4.28125 94.9609 4.28125C96.1589 4.28125 97.1094 4.67969 97.8125 5.47656C98.5208 6.27344 98.875 7.35156 98.875 8.71094ZM92.3516 8.71094C92.3516 9.80469 92.5703 10.638 93.0078 11.2109C93.4453 11.7839 94.0885 12.0703 94.9375 12.0703C95.7865 12.0703 96.4297 11.7865 96.8672 11.2188C97.3099 10.6458 97.5312 9.8099 97.5312 8.71094C97.5312 7.6224 97.3099 6.79688 96.8672 6.23438C96.4297 5.66667 95.7812 5.38281 94.9219 5.38281C94.0729 5.38281 93.4323 5.66146 93 6.21875C92.5677 6.77604 92.3516 7.60677 92.3516 8.71094ZM108.102 6.58594C108.102 7.14323 107.94 7.56771 107.617 7.85938C107.299 8.14583 106.852 8.33854 106.273 8.4375V8.50781C107.003 8.60677 107.534 8.82031 107.867 9.14844C108.206 9.47656 108.375 9.92969 108.375 10.5078C108.375 11.3047 108.081 11.9193 107.492 12.3516C106.909 12.7839 106.055 13 104.93 13H101.156V4.4375H104.914C107.039 4.4375 108.102 5.15365 108.102 6.58594ZM107.078 10.4219C107.078 9.95833 106.901 9.6224 106.547 9.41406C106.198 9.20052 105.617 9.09375 104.805 9.09375H102.453V11.9141H104.836C106.331 11.9141 107.078 11.4167 107.078 10.4219ZM106.836 6.71094C106.836 6.29427 106.674 6 106.352 5.82812C106.034 5.65104 105.549 5.5625 104.898 5.5625H102.453V7.97656H104.648C105.451 7.97656 106.016 7.8776 106.344 7.67969C106.672 7.48177 106.836 7.15885 106.836 6.71094ZM111.562 7.97656H113.898C114.987 7.97656 115.792 8.17969 116.312 8.58594C116.839 8.98698 117.102 9.58854 117.102 10.3906C117.102 11.25 116.823 11.901 116.266 12.3438C115.714 12.7812 114.898 13 113.82 13H110.266V4.4375H111.562V7.97656ZM119.836 13H118.539V4.4375H119.836V13ZM111.562 9.09375V11.9141H113.758C115.133 11.9141 115.82 11.4323 115.82 10.4688C115.82 9.98958 115.661 9.64062 115.344 9.42188C115.026 9.20312 114.484 9.09375 113.719 9.09375H111.562ZM123.812 4.4375V9.86719L123.758 11.2891L123.734 11.7344L128.367 4.4375H129.984V13H128.773V7.76562L128.797 6.73438L128.836 5.71875L124.211 13H122.594V4.4375H123.812ZM126.258 3.30469C125.294 3.30469 124.591 3.11979 124.148 2.75C123.706 2.375 123.458 1.76042 123.406 0.90625H124.625C124.672 1.44792 124.812 1.82552 125.047 2.03906C125.286 2.2526 125.701 2.35938 126.289 2.35938C126.826 2.35938 127.221 2.24479 127.477 2.01562C127.737 1.78646 127.896 1.41667 127.953 0.90625H129.18C129.117 1.72917 128.854 2.33594 128.391 2.72656C127.927 3.11198 127.216 3.30469 126.258 3.30469ZM142.156 13L141.898 11.7812H141.836C141.409 12.3177 140.982 12.6823 140.555 12.875C140.133 13.0625 139.604 13.1562 138.969 13.1562C138.12 13.1562 137.453 12.9375 136.969 12.5C136.49 12.0625 136.25 11.4401 136.25 10.6328C136.25 8.90365 137.633 7.9974 140.398 7.91406L141.852 7.86719V7.33594C141.852 6.66406 141.706 6.16927 141.414 5.85156C141.128 5.52865 140.667 5.36719 140.031 5.36719C139.318 5.36719 138.51 5.58594 137.609 6.02344L137.211 5.03125C137.633 4.80208 138.094 4.6224 138.594 4.49219C139.099 4.36198 139.604 4.29688 140.109 4.29688C141.13 4.29688 141.885 4.52344 142.375 4.97656C142.87 5.42969 143.117 6.15625 143.117 7.15625V13H142.156ZM139.227 12.0859C140.034 12.0859 140.667 11.8646 141.125 11.4219C141.589 10.9792 141.82 10.3594 141.82 9.5625V8.78906L140.523 8.84375C139.492 8.88021 138.747 9.04167 138.289 9.32812C137.836 9.60938 137.609 10.0495 137.609 10.6484C137.609 11.1172 137.75 11.474 138.031 11.7188C138.318 11.9635 138.716 12.0859 139.227 12.0859ZM153.234 15.9609H151.977V13H145.992V15.9609H144.742V11.8828H145.414C146.112 10.9349 146.659 9.82292 147.055 8.54688C147.451 7.27083 147.656 5.90104 147.672 4.4375H152.008V11.8828H153.234V15.9609ZM150.758 11.8828V5.46094H148.836C148.768 6.61719 148.544 7.78906 148.164 8.97656C147.789 10.1589 147.32 11.1276 146.758 11.8828H150.758ZM158.938 13.1562C158.38 13.1562 157.87 13.0547 157.406 12.8516C156.948 12.6432 156.562 12.3255 156.25 11.8984H156.156C156.219 12.3984 156.25 12.8724 156.25 13.3203V16.8438H154.953V4.4375H156.008L156.188 5.60938H156.25C156.583 5.14062 156.971 4.80208 157.414 4.59375C157.857 4.38542 158.365 4.28125 158.938 4.28125C160.073 4.28125 160.948 4.66927 161.562 5.44531C162.182 6.22135 162.492 7.3099 162.492 8.71094C162.492 10.1172 162.177 11.2109 161.547 11.9922C160.922 12.7682 160.052 13.1562 158.938 13.1562ZM158.75 5.38281C157.875 5.38281 157.242 5.625 156.852 6.10938C156.461 6.59375 156.26 7.36458 156.25 8.42188V8.71094C156.25 9.91406 156.451 10.776 156.852 11.2969C157.253 11.8125 157.896 12.0703 158.781 12.0703C159.521 12.0703 160.099 11.7708 160.516 11.1719C160.938 10.5729 161.148 9.7474 161.148 8.69531C161.148 7.6276 160.938 6.8099 160.516 6.24219C160.099 5.66927 159.51 5.38281 158.75 5.38281ZM168.383 13.1562C167.117 13.1562 166.117 12.7708 165.383 12C164.654 11.2292 164.289 10.1589 164.289 8.78906C164.289 7.40885 164.628 6.3125 165.305 5.5C165.987 4.6875 166.901 4.28125 168.047 4.28125C169.12 4.28125 169.969 4.63542 170.594 5.34375C171.219 6.04688 171.531 6.97656 171.531 8.13281V8.95312H165.633C165.659 9.95833 165.911 10.7214 166.391 11.2422C166.875 11.763 167.555 12.0234 168.43 12.0234C169.352 12.0234 170.263 11.8307 171.164 11.4453V12.6016C170.706 12.7995 170.271 12.9401 169.859 13.0234C169.453 13.112 168.961 13.1562 168.383 13.1562ZM168.031 5.36719C167.344 5.36719 166.794 5.59115 166.383 6.03906C165.977 6.48698 165.737 7.10677 165.664 7.89844H170.141C170.141 7.08073 169.958 6.45573 169.594 6.02344C169.229 5.58594 168.708 5.36719 168.031 5.36719ZM177.172 13.1562C175.932 13.1562 174.971 12.776 174.289 12.0156C173.612 11.25 173.273 10.1693 173.273 8.77344C173.273 7.34115 173.617 6.23438 174.305 5.45312C174.997 4.67188 175.982 4.28125 177.258 4.28125C177.669 4.28125 178.081 4.32552 178.492 4.41406C178.904 4.5026 179.227 4.60677 179.461 4.72656L179.062 5.82812C178.776 5.71354 178.464 5.61979 178.125 5.54688C177.786 5.46875 177.487 5.42969 177.227 5.42969C175.487 5.42969 174.617 6.53906 174.617 8.75781C174.617 9.8099 174.828 10.6172 175.25 11.1797C175.677 11.7422 176.307 12.0234 177.141 12.0234C177.854 12.0234 178.586 11.8698 179.336 11.5625V12.7109C178.763 13.0078 178.042 13.1562 177.172 13.1562Z" fill="#1374CF"/>
</svg>
