<svg width="24" height="24" viewBox="0 0 24 24"  xmlns="http://www.w3.org/2000/svg">
<path fill-rule="evenodd" clip-rule="evenodd" d="M6 2.25C3.92893 2.25 2.25 3.92893 2.25 6V9C2.25 10.2426 3.25736 11.25 4.5 11.25H9C10.2426 11.25 11.25 10.2426 11.25 9V4.5C11.25 3.25736 10.2426 2.25 9 2.25H6ZM3.75 6C3.75 4.75736 4.75736 3.75 6 3.75H9C9.41421 3.75 9.75 4.08579 9.75 4.5V9C9.75 9.41421 9.41421 9.75 9 9.75H4.5C4.08579 9.75 3.75 9.41421 3.75 9V6Z" />
<path fill-rule="evenodd" clip-rule="evenodd" d="M4.5 12.75C3.25736 12.75 2.25 13.7574 2.25 15V18C2.25 20.0711 3.92893 21.75 6 21.75H9C10.2426 21.75 11.25 20.7426 11.25 19.5V15C11.25 13.7574 10.2426 12.75 9 12.75H4.5ZM3.75 15C3.75 14.5858 4.08579 14.25 4.5 14.25H9C9.41421 14.25 9.75 14.5858 9.75 15V19.5C9.75 19.9142 9.41421 20.25 9 20.25H6C4.75736 20.25 3.75 19.2426 3.75 18V15Z" />
<path fill-rule="evenodd" clip-rule="evenodd" d="M12.75 4.5C12.75 3.25736 13.7574 2.25 15 2.25H18C20.0711 2.25 21.75 3.92893 21.75 6V9C21.75 10.2426 20.7426 11.25 19.5 11.25H15C13.7574 11.25 12.75 10.2426 12.75 9V4.5ZM15 3.75C14.5858 3.75 14.25 4.08579 14.25 4.5V9C14.25 9.41421 14.5858 9.75 15 9.75H19.5C19.9142 9.75 20.25 9.41421 20.25 9V6C20.25 4.75736 19.2426 3.75 18 3.75H15Z" />
<path fill-rule="evenodd" clip-rule="evenodd" d="M15 12.75C13.7574 12.75 12.75 13.7574 12.75 15V19.5C12.75 20.7426 13.7574 21.75 15 21.75H18C20.0711 21.75 21.75 20.0711 21.75 18V15C21.75 13.7574 20.7426 12.75 19.5 12.75H15ZM14.25 15C14.25 14.5858 14.5858 14.25 15 14.25H19.5C19.9142 14.25 20.25 14.5858 20.25 15V18C20.25 19.2426 19.2426 20.25 18 20.25H15C14.5858 20.25 14.25 19.9142 14.25 19.5V15Z" />
</svg>
