<svg width="32" height="32" viewBox="0 0 32 32" fill="none" xmlns="http://www.w3.org/2000/svg">
<path fill-rule="evenodd" clip-rule="evenodd" d="M12 5C12 4.44772 12.4477 4 13 4H19C19.5523 4 20 4.44772 20 5V7H26C26.5523 7 27 7.44772 27 8C27 8.55228 26.5523 9 26 9H6C5.44772 9 5 8.55228 5 8C5 7.44772 5.44772 7 6 7H12V5ZM14 7H18V6H14V7Z" fill="#E42734"/>
<path d="M14 15C14.5523 15 15 15.4477 15 16V24C15 24.5523 14.5523 25 14 25C13.4477 25 13 24.5523 13 24V16C13 15.4477 13.4477 15 14 15Z" fill="#E42734"/>
<path d="M19 16C19 15.4477 18.5523 15 18 15C17.4477 15 17 15.4477 17 16V24C17 24.5523 17.4477 25 18 25C18.5523 25 19 24.5523 19 24V16Z" fill="#E42734"/>
<path fill-rule="evenodd" clip-rule="evenodd" d="M7.24455 11.3448C7.43448 11.1258 7.71011 11 8 11H24C24.2899 11 24.5655 11.1258 24.7555 11.3448C24.9454 11.5638 25.0309 11.8544 24.99 12.1414L22.9495 26.4243C22.7384 27.9022 21.4726 29 19.9797 29H12.0203C10.5274 29 9.26159 27.9022 9.05046 26.4243L7.01005 12.1414C6.96905 11.8544 7.05461 11.5638 7.24455 11.3448ZM9.15301 13L11.0304 26.1414C11.1007 26.6341 11.5227 27 12.0203 27H19.9797C20.4773 27 20.8993 26.6341 20.9696 26.1414L22.847 13H9.15301Z" fill="#E42734"/>
</svg>
