<svg width="40" height="40" viewBox="0 0 40 40" fill="none" xmlns="http://www.w3.org/2000/svg">
<g id="Vkontakte (VK)">
<g id="Vkontakte (VK)_2">
<rect id="Rectangle" width="40" height="40" rx="20" fill="#5181B8"/>
<path id="Vector" fill-rule="evenodd" clip-rule="evenodd" d="M32.7218 13.7794C32.9073 13.1613 32.7218 12.707 31.8395 12.707H28.9222C28.1803 12.707 27.8386 13.0994 27.6531 13.5322C27.6531 13.5322 26.1695 17.1483 24.0677 19.4972C23.3878 20.1771 23.0787 20.3932 22.7078 20.3932C22.5224 20.3932 22.254 20.1771 22.254 19.559V13.7794C22.254 13.0375 22.0387 12.707 21.4204 12.707H16.836C16.3726 12.707 16.0938 13.0513 16.0938 13.3776C16.0938 14.0809 17.1444 14.243 17.2528 16.221V20.5172C17.2528 21.4591 17.0828 21.6299 16.7118 21.6299C15.7229 21.6299 13.3173 17.9974 11.8903 13.8413C11.6106 13.0334 11.3302 12.707 10.5846 12.707H7.66723C6.8337 12.707 6.66699 13.0994 6.66699 13.5322C6.66699 14.3049 7.65618 18.1375 11.2722 23.2062C13.6832 26.6674 17.0794 28.5441 20.1701 28.5441C22.0247 28.5441 22.254 28.1273 22.254 27.4094V24.7932C22.254 23.9597 22.4296 23.7934 23.0166 23.7934C23.4497 23.7934 24.1913 24.0097 25.9223 25.6786C27.9003 27.6564 28.2262 28.5441 29.339 28.5441H32.2563C33.0898 28.5441 33.5066 28.1273 33.2661 27.3048C33.0031 26.485 32.0588 25.296 30.8055 23.8861C30.1256 23.0824 29.1056 22.217 28.7967 21.7844C28.3639 21.228 28.4875 20.9808 28.7967 20.4866C28.7967 20.4866 32.3509 15.4796 32.7218 13.7796V13.7794Z" fill="white"/>
</g>
</g>
</svg>
