<svg width="27" height="27" viewBox="0 0 27 27" fill="none" xmlns="http://www.w3.org/2000/svg">
<g clip-path="url(#clip0)">
<path d="M19.3233 15.0882V15.8824H24.8821V15.0882C24.8821 11.1335 21.6647 7.91603 17.7099 7.91603L17.4419 7.91884C17.0968 7.92244 16.7722 7.79093 16.527 7.54841C16.2818 7.30583 16.1468 6.98231 16.1468 6.63745V3.97059H13.7645V2.38235H17.7351V0.794118H13.7645V0H12.1762V0.794118H8.20565V2.38235H12.1762V3.97059H9.79389V6.44104C9.79389 7.26824 9.12095 7.94118 8.29375 7.94118H5.81218C5.69248 6.60764 4.56923 5.55882 3.20509 5.55882H1.05859V15.8824H3.20504C4.56918 15.8824 5.69243 14.8335 5.81213 13.5H17.7351C18.6108 13.5 19.3233 14.2125 19.3233 15.0882ZM11.3821 6.44104V5.55882H14.5586V6.63745C14.5586 7.40975 14.8609 8.13425 15.41 8.67743C15.959 9.22061 16.6856 9.51565 17.4589 9.50697L17.7141 9.50426C20.5219 9.50622 22.8512 11.591 23.2376 14.2941H20.8111C20.4576 12.9256 19.2125 11.9118 17.7351 11.9118H5.8233V9.52941H8.29375C9.99671 9.52941 11.3821 8.144 11.3821 6.44104ZM4.23506 13.2641C4.23506 13.832 3.77299 14.2941 3.20504 14.2941H2.64683V7.14706H3.20504C3.77299 7.14706 4.23506 7.60913 4.23506 8.17708V13.2641Z" fill="#1374CF"/>
<path d="M24.3301 19.8443C23.5844 18.8335 22.8487 18.0371 22.8177 18.0037L22.2352 17.375L21.6527 18.0037C21.6217 18.0371 20.886 18.8335 20.1403 19.8443C19.0563 21.3136 18.5293 22.4421 18.5293 23.2942C18.5293 25.3376 20.1918 27.0001 22.2352 27.0001C24.2786 27.0001 25.9411 25.3376 25.9411 23.2942C25.9411 22.4421 25.4141 21.3136 24.3301 19.8443ZM22.2352 25.4119C21.0675 25.4119 20.1175 24.4619 20.1175 23.2942C20.1175 23.1204 20.2108 22.4267 21.41 20.7985C21.7009 20.4036 21.9941 20.0395 22.2372 19.7494C23.2386 20.9472 24.3528 22.5586 24.3528 23.2942C24.3528 24.4619 23.4029 25.4119 22.2352 25.4119Z" fill="#1374CF"/>
</g>
<defs>
<clipPath id="clip0">
<rect width="27" height="27" fill="white"/>
</clipPath>
</defs>
</svg>
