<svg width="32" height="32" viewBox="0 0 32 32" fill="none" xmlns="http://www.w3.org/2000/svg">
<g clip-path="url(#clip0)">
<path d="M21.5069 18.3072L21.4979 18.3822C19.2989 17.2862 19.0689 17.1402 18.7849 17.5662C18.5879 17.8612 18.0139 18.5302 17.8409 18.7282C17.6659 18.9232 17.4919 18.9382 17.1949 18.8032C16.8949 18.6532 15.9319 18.3382 14.7919 17.3182C13.9039 16.5232 13.3079 15.5482 13.1319 15.2482C12.8389 14.7422 13.4519 14.6702 14.0099 13.6142C14.1099 13.4042 14.0589 13.2392 13.9849 13.0902C13.9099 12.9402 13.3129 11.4702 13.0629 10.8842C12.8229 10.3002 12.5759 10.3742 12.3909 10.3742C11.8149 10.3242 11.3939 10.3322 11.0229 10.7182C9.40889 12.4922 9.81589 14.3222 11.1969 16.2682C13.9109 19.8202 15.3569 20.4742 18.0009 21.3822C18.7149 21.6092 19.3659 21.5772 19.8809 21.5032C20.4549 21.4122 21.6479 20.7822 21.8969 20.0772C22.1519 19.3722 22.1519 18.7872 22.0769 18.6522C22.0029 18.5172 21.8069 18.4422 21.5069 18.3072Z" fill="#4BB028"/>
<path d="M24.52 7.44894C16.831 0.0159461 4.106 5.40694 4.101 15.8929C4.101 17.9889 4.65 20.0329 5.696 21.8379L4 27.9999L10.335 26.3479C18.24 30.6179 27.996 24.9479 28 15.8989C28 12.7229 26.76 9.73394 24.505 7.48794L24.52 7.44894ZM26.002 15.8659C25.996 23.4989 17.617 28.2659 10.99 24.3699L10.63 24.1559L6.88 25.1309L7.885 21.4859L7.646 21.1109C3.522 14.5459 8.26 5.96594 16.072 5.96594C18.726 5.96594 21.217 7.00094 23.093 8.87594C24.968 10.7349 26.002 13.2259 26.002 15.8659Z" fill="#4BB028"/>
</g>
<defs>
<clipPath id="clip0">
<rect width="24" height="24" fill="white" transform="translate(4 4)"/>
</clipPath>
</defs>
</svg>
