<svg width="24" height="24" viewBox="0 0 24 24" fill="none" xmlns="http://www.w3.org/2000/svg">
<g clip-path="url(#clip0)">
<path d="M17.5071 14.3072L17.4981 14.3822C15.2991 13.2862 15.0691 13.1402 14.7851 13.5662C14.5881 13.8612 14.0141 14.5302 13.8411 14.7282C13.6661 14.9232 13.4921 14.9382 13.1951 14.8032C12.8951 14.6532 11.9321 14.3382 10.7921 13.3182C9.90414 12.5232 9.30814 11.5482 9.13214 11.2482C8.83914 10.7422 9.45214 10.6702 10.0101 9.61417C10.1101 9.40417 10.0591 9.23917 9.98514 9.09017C9.91014 8.94017 9.31314 7.47017 9.06314 6.88417C8.82314 6.30017 8.57614 6.37417 8.39114 6.37417C7.81514 6.32417 7.39414 6.33217 7.02314 6.71817C5.40914 8.49217 5.81614 10.3222 7.19714 12.2682C9.91114 15.8202 11.3571 16.4742 14.0011 17.3822C14.7151 17.6092 15.3661 17.5772 15.8811 17.5032C16.4551 17.4122 17.6481 16.7822 17.8971 16.0772C18.1521 15.3722 18.1521 14.7872 18.0771 14.6522C18.0031 14.5172 17.8071 14.4422 17.5071 14.3072Z" fill="#4BB028"/>
<path d="M20.52 3.44845C12.831 -3.98454 0.106 1.40645 0.101 11.8924C0.101 13.9884 0.65 16.0324 1.696 17.8374L0 23.9994L6.335 22.3474C14.24 26.6174 23.996 20.9474 24 11.8984C24 8.72245 22.76 5.73345 20.505 3.48745L20.52 3.44845ZM22.002 11.8654C21.996 19.4984 13.617 24.2654 6.99 20.3694L6.63 20.1554L2.88 21.1304L3.885 17.4854L3.646 17.1104C-0.478 10.5455 4.26 1.96545 12.072 1.96545C14.726 1.96545 17.217 3.00045 19.093 4.87545C20.968 6.73445 22.002 9.22545 22.002 11.8654Z" fill="#4BB028"/>
</g>
<defs>
<clipPath id="clip0">
<rect width="24" height="24" fill="white"/>
</clipPath>
</defs>
</svg>
